#!OML:ASF I:\golf\golf\golf 2\Subject 1\2002-09-07\Subject1.ASF
:FULLY-SPECIFIED
:DEGREES
53
root 0.117967 17.879 -9.79153 8.0176 -0.76512 -5.99163
lowerback -7.84008 0.277572 -0.763249
upperback 0.078519 0.23333 4.52557
thorax 4.4659 0.047595 5.18968
lowerneck -18.6309 -1.06209 -0.253563
upperneck 39.7507 0.475442 -4.73857
head 17.952 -0.536927 -2.0663
rclavicle 1.07344e-014 2.70347e-014
rhumerus -28.3025 -0.0789087 -84.1115
rradius 26.4328
rwrist -8.25711
rhand -19.6467 10.4822
rfingers 7.12502
rthumb 6.68086 -19.3924
lclavicle 1.07344e-014 2.70347e-014
lhumerus -26.5107 3.92633 87.9981
lradius 24.5315
lwrist -0.922962
lhand -7.42543 30.5366
lfingers 7.12502
lthumb 18.4616 59.6805
rfemur -16.0672 2.76587 22.8619
rtibia 29.8889
rfoot -17.2228 -5.08626
rtoes 1.73365
lfemur -15.5222 2.11218 -10.9833
ltibia 32.4826
lfoot -20.0308 1.11061
ltoes -10.0698
54
root 0.11952 17.8808 -9.79861 8.09793 -0.73465 -6.01458
lowerback -7.79627 0.263411 -0.730818
upperback 0.0499134 0.213452 4.51968
thorax 4.41331 0.0397639 5.16119
lowerneck -18.5787 -1.04704 -0.232558
upperneck 39.8247 0.499362 -4.75571
head 17.9821 -0.526352 -2.07575
rclavicle -7.25564e-015 1.35174e-014
rhumerus -28.3116 -0.32812 -84.0189
rradius 26.3366
rwrist -7.68478
rhand -19.4855 10.8037
rfingers 7.12502
rthumb 6.83651 -19.0659
lclavicle -7.25564e-015 1.35174e-014
lhumerus -26.7404 4.32462 87.8017
lradius 24.8362
lwrist -0.56742
lhand -7.39939 30.6865
lfingers 7.12502
lthumb 18.4867 59.8281
rfemur -16.1901 2.75721 22.8796
rtibia 29.9178
rfoot -17.1328 -5.07955
rtoes 2.17889
lfemur -15.6503 2.16814 -10.9587
ltibia 32.5066
lfoot -19.9731 0.994793
ltoes -9.77741
55
root 0.120504 17.883 -9.80832 8.2388 -0.669267 -5.9693
lowerback -7.79112 0.249549 -0.762673
upperback 0.00388542 0.201472 4.47718
thorax 4.36338 0.0350616 5.13195
lowerneck -18.5021 -1.03585 -0.155335
upperneck 39.8352 0.499789 -4.78989
head 17.9674 -0.51853 -2.10462
rclavicle -1.20762e-014 -2.54444e-014
rhumerus -28.3314 -0.451216 -84.0146
rradius 26.2912
rwrist -7.51284
rhand -19.515 11.0163
rfingers 7.12502
rthumb 6.80805 -18.8542
lclavicle -1.20762e-014 -2.54444e-014
lhumerus -26.9435 4.65835 87.5893
lradius 25.1488
lwrist -0.329676
lhand -7.21813 30.9104
lfingers 7.12502
lthumb 18.661 60.0353
rfemur -16.3871 2.78843 22.8266
rtibia 29.9453
rfoot -17.0425 -5.15733
rtoes 2.4931
lfemur -15.876 2.18986 -11.0017
ltibia 32.5299
lfoot -19.9212 0.842503
ltoes -9.19291
56
root 0.122765 17.8818 -9.81561 8.33394 -0.718709 -5.92561
lowerback -7.75526 0.28429 -0.782127
upperback -0.0351948 0.254134 4.42109
thorax 4.29738 0.0631171 5.0881
lowerneck -18.3832 -1.03511 -0.0823286
upperneck 39.7928 0.477275 -4.81008
head 17.9097 -0.518173 -2.12753
rclavicle -2.13694e-015 1.03368e-014
rhumerus -28.4441 -0.395853 -84.122
rradius 26.3613
rwrist -7.98031
rhand -19.7223 11.1661
rfingers 7.12502
rthumb 6.60794 -18.7108
lclavicle -2.13694e-015 1.03368e-014
lhumerus -27.0795 4.86355 87.4052
lradius 25.3142
lwrist -0.0855358
lhand -7.14174 31.1773
lfingers 7.12502
lthumb 18.7345 60.2952
rfemur -16.5195 2.80318 22.7605
rtibia 29.9653
rfoot -17.1157 -5.13676
rtoes 2.55444
lfemur -16.0188 2.23418 -11.0682
ltibia 32.5585
lfoot -19.9053 0.832345
ltoes -9.00338
57
root 0.125938 17.8835 -9.8216 8.42224 -0.814866 -5.92633
lowerback -7.6824 0.318156 -0.767524
upperback -0.103975 0.302837 4.39257
thorax 4.18013 0.0908214 5.05226
lowerneck -18.2161 -1.022 -0.0629423
upperneck 39.782 0.482878 -4.80114
head 17.859 -0.51053 -2.12223
rclavicle -5.41688e-015 -1.23246e-014
rhumerus -28.6199 -0.372528 -84.1982
rradius 26.4382
rwrist -8.25164
rhand -19.9191 11.2201
rfingers 7.12502
rthumb 6.41787 -18.6627
lclavicle -5.41688e-015 -1.23246e-014
lhumerus -27.2808 4.86329 87.2951
lradius 25.4743
lwrist 0.351119
lhand -7.29232 31.6459
lfingers 7.12502
lthumb 18.5897 60.7777
rfemur -16.6511 2.78494 22.7381
rtibia 29.9897
rfoot -17.1854 -5.04197
rtoes 2.21892
lfemur -16.1192 2.25721 -11.0973
ltibia 32.5726
lfoot -19.8632 0.909595
ltoes -8.81879
58
root 0.129989 17.8838 -9.82889 8.51127 -0.910835 -6.0415
lowerback -7.58947 0.341347 -0.642882
upperback -0.15909 0.324998 4.42145
thorax 4.06884 0.106541 5.0112
lowerneck -18.1531 -1.0022 -0.0897739
upperneck 39.883 0.527391 -4.80348
head 17.9029 -0.496985 -2.11325
rclavicle 7.35503e-015 -2.98177e-014
rhumerus -28.6928 -0.345347 -84.2014
rradius 26.4194
rwrist -8.20435
rhand -20.0472 11.1463
rfingers 7.12502
rthumb 6.2942 -18.7401
lclavicle 7.35503e-015 -2.98177e-014
lhumerus -27.4776 5.02385 87.168
lradius 25.6105
lwrist 0.61982
lhand -7.33687 31.8465
lfingers 7.12502
lthumb 18.5468 60.9824
rfemur -16.7974 2.81535 22.8363
rtibia 30.002
rfoot -17.1419 -4.93617
rtoes 2.291
lfemur -16.2371 2.31536 -11.0049
ltibia 32.5832
lfoot -19.7761 1.05679
ltoes -9.18681
59
root 0.135952 17.8809 -9.83003 8.4503 -1.10469 -6.14329
lowerback -7.45584 0.395995 -0.50417
upperback -0.122174 0.386515 4.4353
thorax 4.02734 0.139887 4.95126
lowerneck -18.1269 -0.985418 -0.104766
upperneck 39.9483 0.564695 -4.81265
head 17.9357 -0.485774 -2.11006
rclavicle 4.12478e-015 -7.15625e-015
rhumerus -28.6933 -0.300699 -84.2039
rradius 26.3768
rwrist -8.19568
rhand -20.0654 11.1209
rfingers 7.12502
rthumb 6.27668 -18.7662
lclavicle 4.12478e-015 -7.15625e-015
lhumerus -27.6177 5.3207 87.003
lradius 25.6846
lwrist 0.71259
lhand -7.80693 31.2252
lfingers 7.12502
lthumb 18.0946 60.4035
rfemur -16.732 2.85469 22.904
rtibia 29.971
rfoot -17.1523 -4.70379
rtoes 3.27483
lfemur -16.1418 2.44716 -10.9375
ltibia 32.6214
lfoot -19.8039 1.15881
ltoes -9.55124
60
root 0.141564 17.8793 -9.83155 8.41003 -1.25651 -6.11964
lowerback -7.36749 0.434622 -0.480771
upperback -0.0941927 0.438313 4.39951
thorax 4.00252 0.166505 4.90426
lowerneck -18.0421 -0.938852 -0.0610349
upperneck 39.9487 0.627054 -4.83204
head 17.9162 -0.456177 -2.11319
rclavicle 3.42904e-015 -4.77083e-015
rhumerus -28.7205 -0.329905 -84.214
rradius 26.383
rwrist -8.17933
rhand -19.9999 11.1035
rfingers 7.12502
rthumb 6.33989 -18.7817
lclavicle 3.42904e-015 -4.77083e-015
lhumerus -27.7451 5.53768 86.8384
lradius 25.7374
lwrist 0.798753
lhand -8.47324 30.3852
lfingers 7.12502
lthumb 17.4534 59.6216
rfemur -16.6752 2.85698 22.8342
rtibia 29.9124
rfoot -17.1509 -4.50663
rtoes 3.88164
lfemur -16.0777 2.50789 -11.0004
ltibia 32.6666
lfoot -19.8585 1.16529
ltoes -9.41218
61
root 0.144616 17.8813 -9.8401 8.48038 -1.2127 -6.17158
lowerback -7.30271 0.408934 -0.447846
upperback -0.107203 0.401419 4.43647
thorax 3.95585 0.149241 4.91911
lowerneck -18.0628 -0.877115 -0.0605354
upperneck 40.031 0.735413 -4.85089
head 17.9749 -0.415421 -2.1047
rclavicle 1.21756e-014 -4.92986e-014
rhumerus -28.7413 -0.306303 -84.1801
rradius 26.451
rwrist -8.17865
rhand -19.933 11.1367
rfingers 7.12502
rthumb 6.4045 -18.7465
lclavicle 1.21756e-014 -4.92986e-014
lhumerus -27.8082 5.82103 86.6769
lradius 25.6996
lwrist 0.784548
lhand -8.24752 30.2113
lfingers 7.12502
lthumb 17.6707 59.4283
rfemur -16.7684 2.85121 22.8838
rtibia 29.8701
rfoot -17.0842 -4.54672
rtoes 3.66745
lfemur -16.2113 2.43598 -10.9433
ltibia 32.6969
lfoot -19.8047 1.13185
ltoes -9.19397
62
root 0.151066 17.8831 -9.83582 8.4957 -1.47646 -6.27053
lowerback -7.43188 0.479107 -0.398675
upperback -0.00494283 0.481419 4.50939
thorax 4.12796 0.185444 4.98143
lowerneck -18.0849 -0.856335 -0.142512
upperneck 40.0582 0.802281 -4.85253
head 18.0005 -0.401707 -2.07901
rclavicle 4.57205e-015 -1.66979e-014
rhumerus -28.6957 -0.233389 -84.0942
rradius 26.5095
rwrist -8.20333
rhand -19.8827 11.2432
rfingers 7.12502
rthumb 6.45307 -18.6385
lclavicle 4.57205e-015 -1.66979e-014
lhumerus -27.8285 6.03747 86.6024
lradius 25.6575
lwrist 0.900151
lhand -8.12101 30.3439
lfingers 7.12502
lthumb 17.7924 59.55
rfemur -16.7705 2.96069 22.9418
rtibia 29.8316
rfoot -17.0004 -4.37769
rtoes 3.63369
lfemur -16.1302 2.43799 -10.8827
ltibia 32.7197
lfoot -19.8584 1.33161
ltoes -8.88959
63
root 0.151428 17.8855 -9.84611 8.56932 -1.38176 -6.16661
lowerback -7.2728 0.420818 -0.493163
upperback -0.072494 0.420219 4.44114
thorax 3.97318 0.156949 4.95196
lowerneck -17.9715 -0.83986 -0.0959385
upperneck 40.0683 0.792486 -4.81958
head 17.9747 -0.393304 -2.0726
rclavicle -5.76476e-015 1.59028e-014
rhumerus -28.7305 -0.286951 -84.1761
rradius 26.4743
rwrist -8.11699
rhand -19.7674 11.2676
rfingers 7.12502
rthumb 6.56435 -18.6106
lclavicle -5.76476e-015 1.59028e-014
lhumerus -28.0171 5.99399 86.4013
lradius 25.7072
lwrist 1.14787
lhand -8.42128 30.2479
lfingers 7.12502
lthumb 17.5035 59.4799
rfemur -16.8693 2.89958 22.829
rtibia 29.8042
rfoot -16.8655 -4.41138
rtoes 3.31036
lfemur -16.2832 2.37017 -10.9874
ltibia 32.7441
lfoot -19.9077 1.30009
ltoes -8.72339
64
root 0.15612 17.8875 -9.84983 8.48643 -1.50861 -6.15407
lowerback -7.08745 0.433198 -0.53104
upperback -0.0344969 0.441814 4.4507
thorax 3.90623 0.167395 4.98289
lowerneck -17.9238 -0.819563 -0.09411
upperneck 40.1041 0.846626 -4.87446
head 17.9862 -0.379184 -2.08891
rclavicle 1.23246e-014 2.82274e-014
rhumerus -28.6812 -0.142762 -84.1877
rradius 26.3982
rwrist -8.11356
rhand -19.6666 11.2626
rfingers 7.12502
rthumb 6.66166 -18.6126
lclavicle 1.23246e-014 2.82274e-014
lhumerus -28.1189 6.25838 86.2459
lradius 25.6427
lwrist 1.00872
lhand -8.26146 30.2275
lfingers 7.12502
lthumb 17.6572 59.4458
rfemur -16.7871 2.8603 22.7955
rtibia 29.7951
rfoot -16.9064 -4.34218
rtoes 2.35979
lfemur -16.1608 2.41592 -11.0301
ltibia 32.7476
lfoot -19.9879 1.38434
ltoes -8.70859
65
root 0.161005 17.8898 -9.85364 8.48784 -1.63135 -6.14898
lowerback -6.96172 0.443902 -0.591504
upperback -0.0380685 0.461917 4.49262
thorax 3.82927 0.177067 5.06121
lowerneck -17.9075 -0.78728 -0.0947017
upperneck 40.1536 0.941891 -4.9754
head 18.017 -0.355659 -2.11941
rclavicle 3.62782e-015 -2.46493e-014
rhumerus -28.6943 0.0555617 -84.1582
rradius 26.3552
rwrist -8.19377
rhand -19.6586 11.2742
rfingers 7.12502
rthumb 6.66936 -18.6007
lclavicle 3.62782e-015 -2.46493e-014
lhumerus -28.201 6.5848 86.1194
lradius 25.4719
lwrist 0.684131
lhand -8.039 30.5114
lfingers 7.12502
lthumb 17.8713 59.7103
rfemur -16.821 2.84595 22.765
rtibia 29.8189
rfoot -17.0218 -4.24902
rtoes 2.14609
lfemur -16.1268 2.47096 -11.0726
ltibia 32.727
lfoot -20.0007 1.45964
ltoes -8.8488
66
root 0.166048 17.8898 -9.8579 8.58023 -1.72034 -6.07353
lowerback -7.0234 0.474672 -0.697705
upperback -0.00910843 0.509993 4.48241
thorax 3.88888 0.197785 5.11784
lowerneck -17.916 -0.778387 -0.0549378
upperneck 40.1453 0.962771 -5.02728
head 18.0161 -0.348243 -2.14648
rclavicle -1.98785e-016 -5.56597e-015
rhumerus -28.6569 0.0708027 -84.1058
rradius 26.3318
rwrist -8.2477
rhand -19.6567 11.2477
rfingers 7.12502
rthumb 6.67121 -18.6272
lclavicle -1.98785e-016 -5.56597e-015
lhumerus -28.1407 6.57181 86.0632
lradius 25.2914
lwrist 0.469594
lhand -8.08239 30.8484
lfingers 7.12502
lthumb 17.8296 60.0511
rfemur -16.9649 2.87507 22.643
rtibia 29.8394
rfoot -16.95 -4.19553
rtoes 2.23483
lfemur -16.2135 2.47562 -11.1959
ltibia 32.704
lfoot -19.9903 1.53931
ltoes -8.93446
